<svg width="1003" height="669" xmlns="http://www.w3.org/2000/svg" fill="#000000">

 <g>
  <title>Layer 1</title>
  <path fill="#007f00" stroke="null" id="svg_1" d="m988.36525,270.55589l-76.59683,-40.46459a28.86328,25.70438 0 0 0 -29.42922,0l-76.56449,40.46459a30.54495,27.202 0 0 0 -14.89248,23.44354l0,80.98678a30.54495,27.202 0 0 0 14.76312,23.42914l76.58066,40.49339a28.86328,25.70438 0 0 0 29.42922,0l76.58066,-40.49339a30.52878,27.1876 0 0 0 14.76312,-23.42914l0,-80.98678a30.54495,27.202 0 0 0 -14.61759,-23.42914l-0.01617,-0.0144zm-59.32737,126.44825l0,5.81769a2.40932,2.14563 0 0 1 -1.13189,1.78563l-3.86461,1.97283c-0.61446,0.288 -1.13189,0 -1.13189,-0.76321l0,-5.70248a12.61252,11.23216 0 0 1 -8.8126,0.76321a1.1804,1.05122 0 0 1 -0.43659,-1.29602l1.39061,-5.25608a2.474,2.20323 0 0 1 1.14806,-1.38242a0.77616,0.69121 0 0 1 0.61446,0a10.70448,9.53294 0 0 0 8.03644,-0.90721a10.70448,9.53294 0 0 0 5.98286,-8.16492c0,-2.96644 -1.81103,-4.20486 -6.20924,-4.21926c-5.56245,0 -10.68831,-0.95041 -10.83383,-8.26572a23.76976,21.16831 0 0 1 9.00664,-16.20024l0,-5.86089a2.37698,2.11683 0 0 1 1.13189,-1.81443l3.73525,-2.11683c0.61446,-0.288 1.13189,0 1.13189,0.77761l0,5.88969a12.19211,10.85776 0 0 1 7.32497,-0.79201a1.1804,1.05122 0 0 1 0.4851,1.36802l-1.30976,5.21288a2.5225,2.24643 0 0 1 -1.05104,1.29602a0.88934,0.79201 0 0 1 -0.56595,0a9.70194,8.64013 0 0 0 -7.05008,1.03682a8.87728,7.90572 0 0 0 -5.35224,6.9985c0,2.66404 1.58465,3.48485 6.87221,3.57125c7.08242,0 10.13853,2.86564 10.21938,9.20173a25.35441,22.57953 0 0 1 -9.31386,17.06425l-0.01617,-0.0144zm40.11753,-9.79214a1.51997,1.35362 0 0 1 -0.58212,1.32482l-19.37154,10.46895a0.54978,0.48961 0 0 1 -0.6468,0.0432a0.56595,0.50401 0 0 1 -0.25872,-0.53281l0,-4.46407a1.39061,1.23842 0 0 1 0.88934,-1.09442l19.06431,-10.16655a0.56595,0.50401 0 0 1 0.90551,0.50401l0,3.93126l0,-0.0144zm13.37251,-99.56306l-72.4735,39.85978c-9.03898,4.76647 -15.68481,9.97935 -15.68481,19.68509l0,79.48916c0,5.81769 2.66803,9.53294 6.67817,10.67056a23.68891,21.09631 0 0 1 -4.01014,0.36001c-4.26885,0 -8.44069,-1.03682 -12.09509,-2.98084l-76.59683,-40.47899a25.19271,22.43553 0 0 1 -12.12743,-19.26748l0,-80.98678a25.19271,22.43553 0 0 1 12.12743,-19.29628l76.613,-40.46459a23.60806,21.02431 0 0 1 24.07698,0l76.58066,40.49339a25.03101,22.29153 0 0 1 11.77169,15.59543c-2.49016,-4.80967 -8.21431,-6.14889 -14.87631,-2.66404l0.03234,0l-0.01617,-0.0144z"/>
  <g stroke="null">
   <path stroke="null" fill="#007fff" d="m697.50003,334.49999c0,-50.75077 -20.3886,-98.46452 -57.40734,-134.35002c-37.01874,-35.88625 -86.23925,-55.64995 -138.59269,-55.64995c-52.35421,0 -101.57395,19.76371 -138.59346,55.64995c-37.01874,35.8855 -57.40657,83.59925 -57.40657,134.35002s20.38783,98.46452 57.40734,134.35076c37.01874,35.8855 86.23848,55.64921 138.59269,55.64921c52.35344,0 101.57395,-19.76371 138.59269,-55.64921c37.01874,-35.88625 57.40734,-83.59999 57.40734,-134.35076zm-30.69468,64.96366c-15.25738,-13.99617 -34.79536,-23.87097 -56.08663,-30.74437c1.16528,-11.18105 1.76859,-22.62336 1.76859,-34.22226c0,-11.59816 -0.60331,-23.03824 -1.76859,-34.21855c21.2905,-6.87414 40.82772,-16.74969 56.08434,-30.74734c8.42494,20.06949 13.07994,42.00038 13.07994,64.96886c-0.00077,22.96625 -4.655,44.89566 -13.07764,64.96366zm-258.67793,-64.96589c0,-9.94902 0.4632,-19.76445 1.36128,-29.37355c27.7095,6.74797 57.12099,9.22391 83.20125,9.66105l0,39.43019c-26.07872,0.43715 -55.49021,2.91383 -83.20125,9.65957c-0.89808,-9.60984 -1.36128,-19.42676 -1.36128,-29.37726zm84.56176,172.13255c-20.69332,-3.70203 -40.21063,-20.38566 -55.71071,-47.91339c-0.28022,-0.49727 -0.55125,-1.00492 -0.82841,-1.50738c18.00138,-12.37152 37.05243,-19.55664 56.53835,-21.22285l0,70.64362l0.00077,0zm17.6178,-70.64214c19.48669,1.66547 38.53851,8.8491 56.53835,21.22136c-0.27639,0.5032 -0.54895,1.01086 -0.82917,1.50887c-15.49931,27.52625 -35.0174,44.21136 -55.70995,47.91339l0.00077,-70.64362l0,0zm0,-273.62446c20.69255,3.70203 40.21063,20.38715 55.70995,47.91339c0.28022,0.49727 0.55125,1.00418 0.82841,1.50664c-17.99831,12.37152 -37.04936,19.55664 -56.53759,21.22136l-0.00077,-70.6414l0,0zm-17.6178,70.64065c-19.48669,-1.66621 -38.53851,-8.85207 -56.53682,-21.22359c0.27563,-0.50098 0.54742,-1.00789 0.82611,-1.50367c15.50008,-27.52625 35.0174,-44.21136 55.71071,-47.91339l0,70.64065zm17.6178,17.13117c22.27433,-1.60387 43.90171,-9.28922 64.1946,-22.69683c7.84,18.08636 13.54927,38.56628 16.89275,60.45339c-23.2283,5.92711 -50.51671,9.26621 -81.08735,9.80207l0,-47.55863l0,0zm70.51637,-49.19144c-6.84699,-11.95738 -14.48027,-22.14613 -22.71916,-30.43785c13.02022,4.23344 25.37128,9.89039 36.86485,16.77195c-4.61366,4.94371 -9.3345,9.49629 -14.14569,13.6659zm-158.64901,-0.00223c-4.81042,-4.16887 -9.5305,-8.7207 -14.14263,-13.66219c11.49127,-6.88082 23.8408,-12.53629 36.85872,-16.77047c-8.23889,8.28949 -15.86988,18.4775 -22.7161,30.43265zm70.51484,49.19367l0,47.55863c-30.57064,-0.5366 -57.85982,-3.87496 -81.08889,-9.80281c3.34425,-21.88785 9.05275,-42.36777 16.89275,-60.45413c20.29519,13.40836 41.9218,21.09371 64.19613,22.69832zm0,121.16951l0,47.5512c-22.2728,1.60461 -43.90018,9.2907 -64.19537,22.69832c-7.83924,-18.08562 -13.5485,-38.56257 -16.89199,-60.44819c23.2283,-5.92711 50.51748,-9.26473 81.08735,-9.80133zm-70.51254,96.73893c6.84699,11.9559 14.47414,22.15504 22.71227,30.4475c-13.02175,-4.23566 -25.37435,-9.89262 -36.86791,-16.7764c4.61749,-4.94594 9.34063,-9.5 14.15564,-13.67109zm158.64288,-0.00297c4.81578,4.17258 9.54122,8.72738 14.15794,13.67406c-11.49586,6.88453 -23.84922,12.54222 -36.87327,16.77789c8.23966,-8.2932 15.86835,-18.49383 22.71533,-30.45195zm-70.51254,-49.1855l0,-47.5512c30.56988,0.5366 57.85829,3.87422 81.08659,9.80058c-3.34425,21.88562 -9.05199,42.36257 -16.89122,60.44745c-20.29519,-13.40687 -41.92257,-21.09222 -64.19537,-22.69683zm0,-64.64007l0,-39.43019c26.07872,-0.43641 55.49021,-2.91383 83.19971,-9.66031c0.89731,9.60836 1.36128,19.42379 1.36128,29.37281c0,9.95125 -0.4632,19.76668 -1.36128,29.37726c-27.71027,-6.74648 -57.12023,-9.22316 -83.19971,-9.65957zm148.53204,-101.12081c-0.05742,0.05715 -0.11944,0.10687 -0.17609,0.16551c-11.82891,12.30918 -28.861,22.23965 -50.25793,29.57765c-3.87866,-23.9734 -10.45997,-46.38671 -19.47521,-66.07472c7.09505,-5.84101 13.9895,-12.42644 20.65886,-19.72511c20.26533,15.01074 37.12669,34.12503 49.25037,56.05667zm-265.42921,-56.05593c6.66859,7.29793 13.56305,13.88262 20.65657,19.72215c-9.016,19.68801 -15.59731,42.10132 -19.47597,66.07546c-21.39616,-7.33801 -38.42672,-17.26773 -50.2541,-29.57691c-0.05666,-0.05863 -0.11791,-0.10836 -0.17533,-0.16477c12.12367,-21.93164 28.98504,-41.04519 49.24883,-56.05593zm-57.2121,72.49241c15.25508,13.99691 34.7923,23.87172 56.08051,30.74586c-1.16528,11.18031 -1.76859,22.62187 -1.76859,34.21929c0,11.59965 0.60331,23.04195 1.76859,34.22375c-21.28974,6.8734 -40.82696,16.74746 -56.08357,30.74214c-8.42264,-20.06652 -13.07688,-41.99593 -13.07688,-64.96218c0,-22.96847 4.655,-44.89863 13.07994,-64.96886zm7.95944,146.36826c0.05819,-0.05715 0.12097,-0.10762 0.17763,-0.16773c11.82891,-12.30695 28.86024,-22.23445 50.2564,-29.57171c3.87866,23.97043 10.45997,46.38226 19.47291,66.06878c-7.09581,5.84101 -13.99333,12.42644 -20.66346,19.72511c-20.2615,-15.01 -37.12057,-34.12355 -49.24348,-56.05445zm265.44069,56.05519c-6.67166,-7.29941 -13.56917,-13.88558 -20.66575,-19.72734c9.01447,-19.68652 15.59425,-42.09687 19.47214,-66.06804c21.39692,7.33578 38.42979,17.26476 50.25946,29.57246c0.05742,0.06012 0.11944,0.1091 0.17916,0.16773c-12.12291,21.93164 -28.98274,41.04519 -49.24501,56.05519z"/>
  </g>
  <path fill="#7f0000" stroke="null" id="svg_5" d="m199.34546,269.0757l-77.31905,-41.40127a29.13542,26.29939 0 0 0 -29.7067,0l-77.2864,41.40127a30.83295,27.83167 0 0 0 -15.0329,23.98622l0,82.86148a30.83295,27.83167 0 0 0 14.90233,23.97149l77.30271,41.43074a29.13542,26.29939 0 0 0 29.70671,0l77.30271,-41.43074a30.81663,27.81694 0 0 0 14.90233,-23.97149l0,-82.86148a30.83295,27.83167 0 0 0 -14.75542,-23.97149l-0.01632,-0.01474zm-59.88676,129.37531l0,5.95235a2.43204,2.1953 0 0 1 -1.14257,1.82696l-3.90105,2.01849c-0.62024,0.29467 -1.14256,0 -1.14256,-0.78088l0,-5.83449a12.73145,11.49217 0 0 1 -8.89569,0.78089a1.19153,1.07555 0 0 1 -0.4407,-1.32602l1.40372,-5.37775a2.49732,2.25424 0 0 1 1.15889,-1.41441a0.78347,0.70721 0 0 1 0.62025,0a10.8054,9.75361 0 0 0 8.11221,-0.92821a10.8054,9.75361 0 0 0 6.03928,-8.35392c0,-3.03511 -1.82811,-4.3022 -6.26779,-4.31694c-5.61489,0 -10.78908,-0.97241 -10.93599,-8.45705a23.99387,21.65832 0 0 1 9.09156,-16.57525l0,-5.99655a2.39939,2.16584 0 0 1 1.14257,-1.85642l3.77046,-2.16584c0.62025,-0.29467 1.14257,0 1.14257,0.79561l0,6.02602a12.30706,11.1091 0 0 1 7.39403,-0.81035a1.19153,1.07555 0 0 1 0.48967,1.39969l-1.32211,5.33355a2.54629,2.29844 0 0 1 -1.06094,1.32601a0.89774,0.81035 0 0 1 -0.57129,0a9.79342,8.84012 0 0 0 -7.11656,1.06082a8.96097,8.08872 0 0 0 -5.4027,7.1605c0,2.72571 1.59959,3.56551 6.937,3.65392c7.1492,0 10.23413,2.93197 10.31574,9.41474a25.59347,23.10221 0 0 1 -9.40169,17.45925l-0.01632,-0.01473zm40.49578,-10.01882a1.5343,1.38495 0 0 1 -0.5876,1.35549l-19.5542,10.7113a0.55496,0.50094 0 0 1 -0.65289,0.0442a0.57129,0.51567 0 0 1 -0.26116,-0.54515l0,-4.5674a1.40373,1.26709 0 0 1 0.89772,-1.11975l19.24407,-10.40189a0.57129,0.51567 0 0 1 0.91405,0.51567l0,4.02226l0,-0.01474zm13.4986,-101.86776l-73.15683,40.78246c-9.1242,4.87681 -15.8327,10.21036 -15.8327,20.14077l0,81.32918c0,5.95236 2.6932,9.75361 6.74114,10.91756a23.91227,21.58465 0 0 1 -4.04794,0.36834c-4.30911,0 -8.52027,-1.06081 -12.20913,-3.04984l-77.31905,-41.41601a25.43025,22.95487 0 0 1 -12.24176,-19.71349l0,-82.86148a25.43025,22.95487 0 0 1 12.24176,-19.74296l77.33537,-41.40127a23.83065,21.51099 0 0 1 24.304,0l77.30271,41.43075a25.26702,22.80754 0 0 1 11.88268,15.95642c-2.51364,-4.921 -8.29176,-6.29122 -15.01658,-2.7257l0.03265,0l-0.01632,-0.01474z"/>
  <path fill="#000000" id="svg_8" d="m246.56003,317.46089l-19.19291,17.04069l19.19469,17.03752l6.98155,-6.19634l-12.21654,-10.84119l12.214,-10.8412l-6.98079,-6.19949l0,0zm28.0903,0l-6.97649,6.19792l12.21404,10.84118l-12.21404,10.83986l6.97649,6.1963l19.19725,-17.03908l-19.19725,-17.03619z" stroke="null"/>
  <path id="svg_10" d="m733.6113,317.46091l-19.19291,17.04069l19.19469,17.03752l6.98154,-6.19634l-12.21653,-10.84118l12.214,-10.8412l-6.98079,-6.19949l0,0zm28.0903,0l-6.97649,6.19792l12.21404,10.84119l-12.21404,10.83986l6.97649,6.1963l19.19724,-17.03908l-19.19724,-17.03619z" stroke="null"/>
 </g>
</svg>