<svg width="1003" height="669" xmlns="http://www.w3.org/2000/svg" color-interpolation="linearRGB" version="1.1">
 <defs id="defs43">
  <radialGradient gradientTransform="matrix(0.28360000252723694,-0.25270000100135803,-0.37880000472068787,-0.4255000054836273,718.956787109375,192.02520751953125)" r="200" cy="0" cx="0" gradientUnits="userSpaceOnUse" id="svg_30">
   <stop id="svg_32" stop-color="#ffa600" offset="0"/>
   <stop id="svg_31" stop-color="#ffee9c" offset="1"/>
  </radialGradient>
  <radialGradient gradientTransform="matrix(0.666100025177002,-0.07010011374950409,0.025100016966462135,0.23890000581741333,414.0119934082031,157.06900024414062)" r="200" cy="0" cx="0" gradientUnits="userSpaceOnUse" id="svg_26">
   <stop id="svg_28" stop-color="#ff7200" offset="0"/>
   <stop id="svg_27" stop-color="#ffaa00" offset="1"/>
  </radialGradient>
  <radialGradient gradientTransform="matrix(0.8307002186775208,-0.33730000257492065,0.13349999487400055,0.2809000015258789,275.4985656738281,187.86849975585938)" r="200" cy="0" cx="0" gradientUnits="userSpaceOnUse" id="svg_22">
   <stop id="svg_24" stop-color="#33a02c" offset="0"/>
   <stop id="svg_23" stop-color="#a9ff00" offset="1"/>
  </radialGradient>
  <linearGradient spreadMethod="pad" y2="0" x2="1" y1="0" x1="0" id="svg_53">
   <stop offset="0" stop-opacity="0.99609" stop-color="#ff8a42"/>
   <stop offset="0" stop-color="#bf5f00"/>
   <stop offset="0.76172" stop-opacity="0.98828" stop-color="#f47302"/>
  </linearGradient>
 </defs>
 <g>
  <title>Layer 1</title>
  <g>

   <g id="svg_20">
    <path fill="#000000" id="svg_38" d="m250.09997,104.84l0,106.92l13.95,0l0,-106.92l-13.95,0l0,0z"/>
    <path fill="#000000" id="svg_37" d="m313.08997,104.84c0,35.53 0,71.38 0,106.92l13.95,0l0,-106.92l-13.95,0l0,0z"/>
    <path fill="#000000" id="svg_36" d="m415.59997,100l-50.42,111.76l14.09,0l36.32,-81.58l35.27,81.58l14.08,0l-49.36,-111.76l0,0l0.02,0z"/>
    <path fill="#000000" id="svg_35" d="m503.08997,104.84l0,106.92l13.96,0l0,-106.92l-13.96,0l0,0z"/>
    <path fill="#000000" id="svg_34" d="m567.08997,104.84l0,106.92l13.93,0l0,-44.5l4.48,-5.36l39.48,49.88l17.52,0l-47.73,-58.93l47,-48l-16.98,0l-43.79,46.3l0,-46.3l-13.92,0l0,0l0.01,-0.01z"/>
    <path fill="#000000" id="svg_33" d="m743.08997,104.84l0,64.28c0,10.23 -2.13,18.19 -6.28,23.88c-4.13,5.68 -10.54,7.88 -19.21,7.88c-9.08,0 -15.39,-3.48 -19.21,-9.71c-3.83,-6.23 -5.32,-12.52 -5.32,-20.91l0,-65.41l-13.92,0l0,68.64c0,6.48 1.57,12.99 4.27,19.15c2.69,6.16 6.98,11.09 12.72,15.12c5.71,4.02 12.96,5.94 21.46,6.03c5.61,0 10.77,-0.83 15.47,-2.78c4.7,-1.97 8.75,-4.8 12.19,-8.47c3.41,-3.67 6.03,-8.03 7.88,-13.1c1.82,-5.04 2.92,-10.58 2.92,-16.61l0,-67.97l-12.97,0l0,0l0,-0.02z"/>
    <path fill="url(#svg_30)" id="svg_29" d="m726.04997,160.51c-3,15.72 0.8,27.54 8.95,36.36c0.14,-2.41 1.1,-4.13 1.89,-5.55c0.85,15.16 12.33,15.6 17.07,17.36c0.19,-1.78 -1.48,-2.73 -0.14,-6.97c1.53,3.3 2.96,5.17 4.78,7.94c2.76,0.69 5.75,2.51 8.73,2.88c3.67,0.46 8.57,0.9 12.63,1.24c-0.04,-1.86 0.5,-2.61 1.19,-3.79c0.47,1.44 1.12,2.77 1.94,3.99c4.2,-0.36 7.86,0.96 9.85,2.18c-2.2,-8.98 -8.63,-18.15 -14.44,-24.05c-3.41,-1.01 -5.89,0.68 -10.51,2.63c0.92,-2.63 2.84,-4.77 6.6,-6.02c-4.61,-3.81 -9.66,-7.14 -14.69,-10.28c-1.95,-1.21 -7.78,-3.5 -10.36,-5.37c-2.54,-0.04 -4.89,0.06 -7.03,0.3c1.46,-1.01 2.78,-2.2 4.39,-3.08c-6.63,-7.38 -11.72,-10.45 -19.63,-12.63c-7.15,-10.95 -10.42,-26.35 -8.66,-27.35l-4.13,2.35c0,0 3.68,17.08 11.55,27.83l0.01,0.02l0.01,0.01z"/>
    <path fill="url(#svg_26)" id="svg_25" d="m457.67997,184.82c-8.4,-17.4 -20.6,-26.08 -34.81,-28.76c1.59,2.43 1.9,4.79 2.16,6.73c-11.73,-14.06 -23.16,-6.23 -29.02,-4.55c1.1,1.87 3.4,1.59 5.15,6.65c-3.87,-2.08 -6.6,-2.87 -10.35,-4.23c-3.18,1.29 -7.38,1.69 -10.54,3.47c-3.89,2.19 -8.95,5.27 -13.12,7.88c1.38,1.77 1.38,2.89 1.55,4.52c-1.5,-1.04 -3.08,-1.86 -4.75,-2.45c-3.8,3.37 -8.32,4.72 -11.11,4.97c8.59,7.1 21.41,11.35 31.27,12.89c4.02,-1.46 5.19,-4.89 8.27,-10.11c0.97,3.22 0.66,6.68 -2.05,10.59c7.22,0.37 14.5,-0.02 21.61,-0.59c2.77,-0.22 10.05,-2.2 13.91,-2.24c2.5,-1.78 4.67,-3.57 6.58,-5.35c-0.68,2.04 -1.11,4.14 -2.02,6.15c11.72,2.38 18.88,1.69 28.09,-1.87c14.82,5.46 29.05,18.01 28.05,20.25l2.32,-5.25c0,0 -15.85,-13.9 -31.2,-18.65l0,-0.04l0.01,-0.01z"/>
    <path fill="url(#svg_22)" id="svg_21" d="m245.77997,173.34c13.95,13.37 28.42,17.25 42.67,14.8c-2.34,-1.72 -3.45,-3.83 -4.38,-5.56c15.92,9.08 23.88,-2.22 28.79,-5.86c-1.69,-1.37 -3.75,-0.3 -7.15,-4.43c4.35,0.59 7.18,0.37 11.19,0.36c2.51,-2.33 6.31,-4.16 8.66,-6.94c2.88,-3.41 6.54,-8.08 9.54,-11.97c-1.93,-1.18 -2.31,-2.22 -3.04,-3.69c1.76,0.44 3.54,0.66 5.31,0.63c2.37,-4.5 6.13,-7.33 8.66,-8.52c-10.54,-3.66 -24.04,-3.16 -33.81,-1.16c-3.26,2.79 -3.16,6.41 -4.22,12.38c-2.05,-2.67 -2.97,-6.02 -1.76,-10.65c-6.88,2.16 -13.58,5.08 -20.04,8.11c-2.5,1.17 -8.65,5.56 -12.25,6.96c-1.7,2.54 -3.12,4.98 -4.29,7.32c-0.07,-2.15 -0.41,-4.27 -0.24,-6.48c-11.83,1.84 -18.29,5.01 -25.67,11.56c-15.79,0.05 -33.5,-6.72 -33.36,-9.16l-0.33,5.72c0,0 19.72,7.48 35.75,6.58l-0.02,0l-0.01,0z"/>
   </g>
  </g>
  <g id="svg_57">
   <path stroke="#000" id="svg_40" d="m648.12987,492.90285l-5.59836,-19.76714c1.64065,-1.45187 3.18056,-3.00536 4.63412,-4.66775l19.57987,5.64775c2.06521,-3.0344 3.84258,-6.25754 5.43286,-9.60409l-14.57157,-14.22828c0.698,-2.09069 1.30245,-4.21767 1.7342,-6.40998l19.63744,-4.96538c0.14392,-1.82935 0.28064,-3.66596 0.28064,-5.53886s-0.14392,-3.70226 -0.28064,-5.53161l-19.63744,-4.96538c-0.43895,-2.19232 -1.0434,-4.3193 -1.7342,-6.40998l14.57877,-14.22828c-1.59748,-3.33929 -3.37485,-6.56969 -5.44005,-9.60409l-19.57987,5.6405c-1.44636,-1.65513 -2.99347,-3.20862 -4.63412,-4.66775l5.59836,-19.75988c-3.00786,-2.07617 -6.21001,-3.87648 -9.52729,-5.48079l-14.10384,14.70739c-2.06521,-0.70415 -4.18078,-1.30668 -6.35392,-1.7495l-4.91476,-19.81796c-1.82055,-0.13793 -3.6339,-0.28311 -5.49042,-0.28311s-3.66988,0.14519 -5.48323,0.28311l-4.92195,19.81796c-2.17314,0.44282 -4.28152,1.04534 -6.35392,1.7495l-14.10384,-14.70739c-3.31009,1.62609 -6.50504,3.41914 -9.5129,5.50257l5.59836,19.75988c-1.64065,1.45187 -3.18776,3.01262 -4.62692,4.66049l-19.58707,-5.64775c-2.06521,3.0344 -3.84258,6.2648 -5.43286,9.61135l14.57877,14.22828c-0.6908,2.09069 -1.29525,4.21767 -1.7342,6.40998l-19.64464,4.96538c-0.13672,1.82935 -0.28064,3.66596 -0.28064,5.53161s0.14392,3.70226 0.28064,5.53886l19.64464,4.96538c0.43895,2.19232 1.0434,4.3193 1.7342,6.40998l-14.57877,14.22828c1.59028,3.33929 3.36765,6.56969 5.43286,9.60409l19.58707,-5.64775c1.43917,1.66239 2.98627,3.20862 4.62692,4.66775l-5.59836,19.76714c3.00786,2.07617 6.21001,3.86922 9.52009,5.48079l14.10384,-14.70739c2.0724,0.70415 4.18078,1.31394 6.35392,1.7495l4.92195,19.8107c1.81335,0.14519 3.6339,0.28311 5.49042,0.28311s3.66988,-0.14519 5.49042,-0.28311l4.91476,-19.8107c2.17314,-0.44282 4.28872,-1.0526 6.35392,-1.7495l14.10384,14.70739c3.30289,-1.62609 6.50504,-3.41914 9.5129,-5.49531zm-40.38304,-34.85202c-13.50659,0 -24.45865,-11.04869 -24.45865,-24.67445s10.95206,-24.66719 24.45865,-24.66719s24.45145,11.04143 24.45145,24.66719s-10.94487,24.67445 -24.45145,24.67445zm111.47791,51.5775c0.13672,-3.97085 -0.43175,-8.01429 -1.65504,-12.00692l8.95162,-12.87078c-1.35282,-2.54076 -2.87833,-4.95086 -4.61253,-7.14318l-15.26957,3.2304c-3.07982,-2.64239 -6.58419,-4.70404 -10.33322,-6.17769l-4.39666,-15.09214c-2.77759,-0.49363 -5.59117,-0.76223 -8.44072,-0.76949l-7.00875,14.05405c-2.00764,0.392 -4.01528,0.92919 -5.98694,1.69142c-1.84933,0.71141 -3.57633,1.59705 -5.23137,2.56254l-14.43485,-5.94539c-2.13716,1.90194 -4.08724,3.95633 -5.85022,6.18494l6.52662,14.28635c-1.86372,3.59337 -3.14458,7.46259 -3.73464,11.50603l-13.60733,7.69488c0.13672,2.81662 0.54688,5.63324 1.18012,8.45711l15.14004,3.76759c1.66224,3.80389 3.89295,7.20851 6.59139,10.11224l-2.53293,15.52044c2.30267,1.66964 4.74925,3.10699 7.28938,4.3556l12.34086,-9.58231c3.85697,1.02356 7.89383,1.41557 11.95948,1.0889l10.44836,11.66574c1.43917,-0.41378 2.87114,-0.8566 4.28872,-1.40105c1.25927,-0.47912 2.44658,-1.04534 3.6339,-1.61883l0.26625,-15.71644c3.27411,-2.46091 6.06609,-5.42272 8.2896,-8.75475l15.5502,-0.97275c1.09377,-2.6061 2.00764,-5.31383 2.64807,-8.09415l-12.00985,-10.03239zm-29.95627,14.56947c-8.6422,3.32477 -18.31341,-1.04534 -21.61629,-9.76379s1.029,-18.48224 9.6712,-21.81427c8.6422,-3.32477 18.3278,1.04534 21.63069,9.76379c3.29569,8.71845 -1.0434,18.48224 -9.6856,21.81427z" stroke-width="0" fill="#666666"/>
   <path id="svg_55" d="m271.76542,475.74395l0,0l0,-0.00798l0,0.00798zm0.00471,-0.00798l27.16205,23.0335l-27.16676,23.02552l9.9875,8.47049l37.15426,-31.5l-37.15426,-31.5l-9.9828,8.47049zm48.13016,53.95497l67.86512,0l0,-11.96561l-67.86512,0l0,11.96561zm20.40331,-24.93667l47.46181,0l0,-11.96561l-47.46181,0l0,11.96561zm-20.40331,-36.90627l0,11.97359l67.86512,0l0,-11.97359l-67.86512,0z" stroke-width="0" stroke="#000" fill="#000000"/>
   <path id="svg_56" d="m525.76895,515.69396c0.08004,-0.90861 0.12638,-1.82654 0.12638,-2.7538c0,-16.08478 -11.7872,-29.1222 -26.32952,-29.1222c-11.28589,0 -20.88668,7.86998 -24.63179,18.91312c-2.48129,-3.01007 -6.01998,-4.93447 -9.99258,-4.93447c-7.49022,0 -13.56076,6.71442 -13.56076,14.9991c0,0.97851 0.09689,1.93371 0.26119,2.85631c-9.99258,1.82189 -17.63867,11.35067 -17.63867,22.91568c0,12.86968 9.43229,23.29776 21.06362,23.29776l9.73982,0c-0.5308,-1.23944 -0.84254,-2.59071 -0.84254,-4.00256c0,-2.49286 0.87625,-4.84593 2.47287,-6.59327l18.22003,-20.1712c1.57977,-1.75665 3.69456,-2.72584 5.95258,-2.72584c2.27487,0 4.38966,0.97851 5.96943,2.73516l18.2116,20.1712c1.5882,1.73801 2.46444,4.09109 2.46444,6.58395c0,1.4165 -0.30753,2.76777 -0.84254,4.00256l5.52709,0c11.63554,0 21.06362,-10.42808 21.06362,-23.29776c0.00843,-11.42056 -7.43124,-20.87946 -17.23425,-22.87374zm-32.18099,18.69413c-0.81306,-0.90861 -1.89573,-1.35593 -2.97418,-1.35593s-2.15691,0.44732 -2.9784,1.35593l-18.22845,20.17586c-1.64296,1.81257 -1.63875,4.77604 0.00421,6.58861l2.34227,2.58605c1.64296,1.81257 4.06107,2.09214 5.37543,0.63836s2.39283,-0.55449 2.39283,2.01293l0,5.76853c0,2.55809 1.89994,4.65955 4.21272,4.65955l13.75454,0c2.32121,0 4.21272,-2.10146 4.21272,-4.65955l0,-5.76853c0,-2.56741 1.07846,-3.46671 2.39704,-2.01293c1.31437,1.45378 3.73669,1.17421 5.37543,-0.63836l2.34227,-2.58605c1.64296,-1.81257 1.64296,-4.77604 0.00421,-6.58861l-18.23267,-20.17586z" stroke-width="0" stroke="#000" fill="#007fff"/>
   <path stroke="#000" id="svg_8" d="m574.4442,345.75061l0,-38.2578l-0.01397,0c-0.01397,-47.22152 -39.62181,-85.49282 -88.49243,-85.49282s-88.49243,38.2848 -88.49243,85.50632l0,0l0,38.2443l-32.0076,0l0,164.24935l241.00006,0l0,-164.24935l-31.99363,0zm-149.04282,-38.2443c0,0 0,0 0,0c0,-32.26399 27.15966,-58.50717 60.53642,-58.50717c33.4047,0 60.56436,26.24318 60.56436,58.49367c0,0 0,0 0,0l0,38.2578l-121.10078,0l0,-38.2443z" fill="url(#svg_53)"/>
   <text stroke="#000" xml:space="preserve" text-anchor="start" font-family="Noto Sans JP" font-size="42" stroke-width="0" id="svg_18" y="446.27083" x="443.59025" fill="#000000">VPN</text>
  </g>
 </g>
</svg>