<svg width="1003" height="669" xmlns="http://www.w3.org/2000/svg" preserveAspectRatio="xMidYMid meet" class="iconify iconify--twemoji" role="img" aria-hidden="true">
 <defs>
  <filter id="svg_15_blur">
   <feGaussianBlur stdDeviation="0.1" in="SourceGraphic"/>
  </filter>
 </defs>
 <g>
  <title>Layer 1</title>
  <ellipse id="svg_8" ry="1.5" rx="2" cy="2.5" cx="18" fill="#F4900C"/>
  <g stroke="null" id="svg_10">
   <path stroke="null" id="svg_1" d="m740.4672,376.65751c-55.14554,185.49308 -92.25849,236.0821 -238.96402,236.0821c-147.05478,0 -183.81848,-50.58902 -238.96402,-236.0821c-37.40706,-125.79803 36.7637,-236.0821 238.96402,-236.0821s276.3527,110.28407 238.96402,236.0821z" fill="#F4900C"/>
   <path stroke="null" id="svg_2" d="m703.70351,191.16443c36.7637,67.45203 -55.14554,134.90406 -202.20032,134.90406s-238.96402,-67.45203 -202.20032,-134.90406c27.2419,-49.98195 80.38382,-101.17804 202.20032,-101.17804s174.97681,51.19609 202.20032,101.17804z" fill="#BE1931"/>
   <ellipse stroke="null" id="svg_3" ry="101.17804" rx="220.58217" cy="191.16443" cx="501.50318" fill="#FFAC33"/>
   <path stroke="null" id="svg_4" d="m666.93981,174.30143c18.38185,16.86301 36.7637,33.72601 36.7637,50.58902s-18.38185,50.58902 -36.7637,33.72601c0,0 54.18969,19.45991 36.7637,67.45203c-18.38185,50.58902 -73.52739,33.72601 -73.52739,0s-28.54701,-56.35617 -36.7637,-33.72601c-18.38185,50.58902 -55.14554,50.58902 -73.52739,33.72601s-18.38185,-33.72601 -18.38185,-33.72601s-55.14554,0 -36.7637,-33.72601s0,-33.72601 0,-33.72601s0,-16.86301 18.38185,-16.86301s128.67293,-16.86301 147.05478,-33.72601s36.7637,0 36.7637,0z" fill="#FFE8B6"/>
   <path stroke="null" id="svg_5" d="m685.32166,162.12633c0,43.97872 -82.29553,79.62712 -183.81848,79.62712s-183.81848,-35.6484 -183.81848,-79.62712c0,-43.97872 82.29553,-72.13994 183.81848,-72.13994s183.81848,28.16122 183.81848,72.13994z" fill="#662113"/>
   <path stroke="null" id="svg_6" d="m501.50318,241.75345c83.60064,0 154.0215,-24.19841 176.33706,-57.26677a684.96278,628.36623 0 0 0 -10.90044,-10.18526s-36.7637,-33.72601 -55.14554,-16.86301s-110.29109,16.86301 -128.67293,16.86301s-36.7637,16.86301 -36.7637,16.86301s29.17199,33.91151 25.67944,49.47606c9.61371,0.67452 19.41123,1.11296 29.4661,1.11296z" fill="#F4900C"/>
   <path stroke="null" id="svg_7" d="m648.55796,149.00692c0,32.59619 -65.84378,59.02052 -147.05478,59.02052s-147.05478,-26.42433 -147.05478,-59.02052s65.84378,-92.74654 147.05478,-92.74654s147.05478,60.15035 147.05478,92.74654z" fill="#FFCC4D"/>
   <path stroke="null" id="svg_9" d="m275.13073,417.29736c13.32684,41.43241 26.19413,74.78744 40.51359,101.39726c57.18593,43.45597 149.09517,43.45597 185.85886,43.45597s128.67293,0 185.76695,-43.43911c14.33784,-26.5761 27.26028,-59.96485 40.58712,-101.41412c-49.7229,26.35688 -132.38607,43.67519 -226.35407,43.67519s-176.64955,-17.31831 -226.37245,-43.67519z" fill="#FFCC4D"/>
  </g>
  <ellipse stroke-width="3" stroke="#000000" ry="326" rx="325" id="svg_12" cy="334.50001" cx="501.50002" fill="none"/>
  <line stroke-width="2" stroke="#000000" id="svg_13" y2="660.99011" x2="501.5" y1="8.00992" x1="501.5" fill="none"/>
  <line transform="rotate(90 501.5 334.5)" stroke-width="2" stroke="#000000" id="svg_14" y2="660.99011" x2="501.5" y1="8.00992" x1="501.5" fill="none"/>
  <ellipse filter="url(#svg_15_blur)" ry="10" rx="10" id="svg_15" cy="334.50001" cx="501.49999" stroke="#000000" fill="#bf0000"/>
 </g>
</svg>